<svg xmlns="http://www.w3.org/2000/svg" height="120" width="120" version="1">
<path fill="#111" d="M49 43h500V82H49z"/>
<path fill="#a44" d="M79.064 27.94c6.96 12.46 7.832 26.413 1.945 31.168s-16.302-1.49-23.263-13.948-7.832-26.413-1.945-31.168 16.3 1.49 23.262 13.948zM73.02 22.772c4.73 12.555-5.08 27.467-21.915 33.307s-34.317.398-39.05-12.157 5.08-27.466 21.915-33.307 34.317-.398 39.05 12.156zM24.582 67.565c-6.428-10.927-4.028-22.636 5.36-26.153s22.21 2.49 28.637 13.418 4.027 22.635-5.36 26.152-22.21-2.49-28.638-13.417z"/>
<path fill="#711" d="M76.04 27c0 11.16-12.664 20.204-28.284 20.204S19.473 38.16 19.473 27 32.136 6.8 47.756 6.8c15.62 0 28.283 9.045 28.283 20.203z"/>
<path fill="#e77" d="M26.977 43.686c7.302 11.077 11.882 24.8 10.23 30.65s-8.915 1.61-16.218-9.467-11.884-24.8-10.23-30.65 8.914-1.61 16.217 9.466z"/>
<path fill="#411" d="M85.02 51.253c2.56 8.985-5.948 21.4-19 27.727s-25.71 4.176-28.27-4.808c-2.558-8.985 5.95-21.398 19.002-27.727s25.71-4.176 28.268 4.808z"/>
<path fill="#fff" d="M55.32 12.24c0 1.915-2.392 3.466-5.342 3.466-2.95 0-5.342-1.55-5.342-3.465s2.392-3.464 5.342-3.464c2.95 0 5.342 1.552 5.342 3.465zM32.9 22.5c0 1.915-2.39 3.466-5.34 3.466-2.95 0-5.343-1.55-5.343-3.465s2.392-3.464 5.342-3.464c2.95 0 5.34 1.552 5.34 3.465zM48.422 41.037c0 1.914-2.392 3.465-5.342 3.465-2.95 0-5.342-1.55-5.342-3.465s2.392-3.465 5.342-3.465c2.95 0 5.342 1.552 5.342 3.465zM73.254 30.114c0 1.914-2.392 3.465-5.342 3.465-2.95 0-5.342-1.552-5.342-3.466s2.392-3.465 5.342-3.465c2.95 0 5.342 1.55 5.342 3.464zM17.15 37.106c1.632 2.222 2.53 4.536 2 5.168-.527.63-2.28-.66-3.913-2.882s-2.53-4.536-2.003-5.168c.528-.63 2.28.66 3.915 2.882zM18.528 45.712c1.633 2.222 2.53 4.536 2.002 5.168-.528.63-2.28-.66-3.914-2.882s-2.53-4.536-2.003-5.168c.528-.63 2.28.66 3.915 2.882zM20.598 54.98c1.633 2.222 2.53 4.536 2.002 5.168-.528.63-2.28-.66-3.914-2.882s-2.53-4.536-2.003-5.168c.528-.63 2.28.66 3.915 2.882zM29.91 52.332c1.633 2.222 2.53 4.536 2.002 5.168-.528.63-2.28-.66-3.914-2.882s-2.53-4.536-2.003-5.168c.528-.63 2.28.66 3.915 2.882zM30.945 60.937c1.633 2.222 2.53 4.536 2.002 5.168-.528.63-2.28-.66-3.914-2.882s-2.53-4.536-2.003-5.168c.528-.63 2.28.66 3.915 2.882zM32.324 69.874c1.633 2.222 2.53 4.536 2.002 5.168-.528.63-2.28-.66-3.914-2.882s-2.53-4.536-2.003-5.168c.527-.63 2.28.66 3.914 2.882zM53.95 72.954c1.134 1.236.04 3.598-2.446 5.275-2.484 1.676-5.417 2.033-6.55.797s-.04-3.6 2.446-5.276c2.484-1.676 5.417-2.033 6.55-.796zM79.127 46.806c1.134 1.236.04 3.598-2.446 5.275-2.483 1.678-5.416 2.035-6.55.8s-.038-3.6 2.447-5.277c2.484-1.677 5.417-2.034 6.55-.797z"/>
<path fill="#fff" d="M24.56 115h-2.32v-3.92h-.08c-.28.68-.68 1.28-1.2 1.84s-1.12 1.04-1.76 1.44c-.68.4-1.4.68-2.16.88-.76.24-1.52.32-2.24.32-1.6 0-2.96-.28-4.12-.84s-2.12-1.36-2.88-2.36c-.8-1-1.36-2.16-1.72-3.48-.4-1.32-.56-2.72-.56-4.2-.04-1.44.16-2.84.56-4.16.36-1.32.92-2.48 1.72-3.48.76-1 1.72-1.8 2.88-2.4 1.16-.56 2.52-.88 4.12-.88.76 0 1.52.12 2.24.28.72.2 1.44.48 2.08.88s1.2.84 1.68 1.4.88 1.24 1.16 1.96h.08V86.44h2.52V115M8.04 104.68c0 1.08.12 2.16.36 3.2s.64 2 1.2 2.8c.56.84 1.24 1.52 2.12 2.04.84.52 1.84.76 3.08.76 1.32 0 2.44-.24 3.36-.76s1.68-1.2 2.24-2.04c.56-.8 1-1.76 1.24-2.8s.4-2.12.4-3.2c0-1.04-.16-2.12-.4-3.16s-.68-2-1.24-2.84c-.56-.8-1.32-1.48-2.24-2s-2.04-.8-3.36-.8c-1.2 0-2.24.28-3.08.8-.88.52-1.56 1.2-2.12 2-.56.84-.96 1.8-1.2 2.84s-.36 2.12-.36 3.16M29.41 86.44h2.52v4.04h-2.52v-4.04m0 7.92h2.52V115h-2.52V94.36M51.63 103.24c-.04-.96-.2-1.88-.52-2.76s-.72-1.64-1.28-2.32-1.24-1.24-2.04-1.64-1.72-.64-2.72-.64c-1.04 0-1.96.24-2.76.64s-1.48.96-2.04 1.64-1.04 1.48-1.36 2.36-.56 1.8-.64 2.72h13.36m-13.36 2.12c0 .92.12 1.88.36 2.84s.68 1.84 1.24 2.6c.52.8 1.24 1.44 2.12 1.92.84.52 1.84.76 3.08.76 1.84 0 3.28-.48 4.32-1.44s1.76-2.24 2.16-3.84h2.52c-.56 2.36-1.52 4.16-2.96 5.44s-3.44 1.92-6.04 1.92c-1.64 0-3.04-.28-4.24-.84s-2.16-1.36-2.88-2.36c-.76-1-1.32-2.16-1.68-3.48s-.52-2.72-.52-4.2c0-1.32.16-2.68.52-4 .36-1.28.92-2.44 1.68-3.48.72-1.04 1.68-1.84 2.88-2.48s2.6-.96 4.24-.96 3.04.36 4.24 1c1.16.68 2.12 1.56 2.84 2.64s1.28 2.32 1.6 3.72c.28 1.4.44 2.8.4 4.24H38.27M56.862 115v-4.24h3.36V115h-3.36M63.796 94.36h2.52v3.56h.08c.48-1.24 1.32-2.24 2.56-3 1.2-.76 2.56-1.16 4.04-1.16 1.44 0 2.64.2 3.6.56.96.4 1.76.92 2.36 1.6.56.68.96 1.52 1.24 2.48.24 1 .36 2.12.36 3.32V115h-2.52v-12.88c0-.88-.08-1.68-.24-2.44s-.44-1.44-.84-2-.96-1-1.64-1.32-1.52-.48-2.52-.48c-1.04 0-1.92.2-2.72.56s-1.44.84-2 1.48-.96 1.36-1.28 2.24-.48 1.8-.48 2.8V115h-2.52V94.36M100.16 103.24c-.04-.96-.2-1.88-.52-2.76s-.72-1.64-1.28-2.32-1.24-1.24-2.04-1.64-1.72-.64-2.72-.64c-1.04 0-1.96.24-2.76.64s-1.48.96-2.04 1.64-1.04 1.48-1.36 2.36-.56 1.8-.64 2.72h13.36m-13.36 2.12c0 .92.12 1.88.36 2.84s.68 1.84 1.24 2.6c.52.8 1.24 1.44 2.12 1.92.84.52 1.84.76 3.08.76 1.84 0 3.28-.48 4.32-1.44s1.76-2.24 2.16-3.84h2.52c-.56 2.36-1.52 4.16-2.96 5.44s-3.44 1.92-6.04 1.92c-1.64 0-3.04-.28-4.24-.84s-2.16-1.36-2.88-2.36c-.76-1-1.32-2.16-1.68-3.48s-.52-2.72-.52-4.2c0-1.32.16-2.68.52-4 .36-1.28.92-2.44 1.68-3.48.72-1.04 1.68-1.84 2.88-2.48s2.6-.96 4.24-.96 3.04.36 4.24 1c1.16.68 2.12 1.56 2.84 2.64s1.28 2.32 1.6 3.72c.28 1.4.44 2.8.4 4.24H86.8M110.1 94.36h4.2v2.12h-4.2v13.92c0 .84.08 1.48.32 1.96s.8.72 1.72.76c.72 0 1.44-.04 2.16-.12v2.12c-.4 0-.76.04-1.12.04-.4.04-.76.04-1.12.04-1.68 0-2.88-.32-3.52-.96-.68-.64-1-1.88-.96-3.64V96.48h-3.6v-2.12h3.6v-6.2h2.52v6.2"/>
</svg>
